solid ASCII
  facet normal -1.000000e+00 -1.776357e-16 -4.440892e-17
    outer loop
      vertex   -1.300164e+01 0.000000e+00 -1.110512e+01
      vertex   -1.300164e+01 0.000000e+00 2.889488e+01
      vertex   -1.300164e+01 1.000000e+01 -1.110512e+01
    endloop
  endfacet
  facet normal -1.000000e+00 0.000000e+00 0.000000e+00
    outer loop
      vertex   -1.300164e+01 1.000000e+01 -1.110512e+01
      vertex   -1.300164e+01 0.000000e+00 2.889488e+01
      vertex   -1.300164e+01 1.000000e+01 2.889488e+01
    endloop
  endfacet
  facet normal 0.000000e+00 0.000000e+00 1.000000e+00
    outer loop
      vertex   -4.020164e+01 0.000000e+00 -1.110512e+01
      vertex   -1.300164e+01 0.000000e+00 -1.110512e+01
      vertex   -4.020164e+01 1.000000e+01 -1.110512e+01
    endloop
  endfacet
  facet normal -0.000000e+00 0.000000e+00 1.000000e+00
    outer loop
      vertex   -4.020164e+01 1.000000e+01 -1.110512e+01
      vertex   -1.300164e+01 0.000000e+00 -1.110512e+01
      vertex   -1.300164e+01 1.000000e+01 -1.110512e+01
    endloop
  endfacet
  facet normal 1.000000e+00 -0.000000e+00 0.000000e+00
    outer loop
      vertex   -4.020164e+01 0.000000e+00 2.889488e+01
      vertex   -4.020164e+01 0.000000e+00 -1.110512e+01
      vertex   -4.020164e+01 1.000000e+01 2.889488e+01
    endloop
  endfacet
  facet normal 1.000000e+00 0.000000e+00 0.000000e+00
    outer loop
      vertex   -4.020164e+01 1.000000e+01 2.889488e+01
      vertex   -4.020164e+01 0.000000e+00 -1.110512e+01
      vertex   -4.020164e+01 1.000000e+01 -1.110512e+01
    endloop
  endfacet
  facet normal 0.000000e+00 0.000000e+00 -1.000000e+00
    outer loop
      vertex   -1.300164e+01 0.000000e+00 2.889488e+01
      vertex   -4.020164e+01 0.000000e+00 2.889488e+01
      vertex   -1.300164e+01 1.000000e+01 2.889488e+01
    endloop
  endfacet
  facet normal -0.000000e+00 0.000000e+00 -1.000000e+00
    outer loop
      vertex   -1.300164e+01 1.000000e+01 2.889488e+01
      vertex   -4.020164e+01 0.000000e+00 2.889488e+01
      vertex   -4.020164e+01 1.000000e+01 2.889488e+01
    endloop
  endfacet
  facet normal -1.000000e+00 0.000000e+00 0.000000e+00
    outer loop
      vertex   3.979836e+01 0.000000e+00 -1.110512e+01
      vertex   3.979836e+01 0.000000e+00 2.889488e+01
      vertex   3.979836e+01 1.000000e+01 -1.110512e+01
    endloop
  endfacet
  facet normal -1.000000e+00 0.000000e+00 0.000000e+00
    outer loop
      vertex   3.979836e+01 1.000000e+01 -1.110512e+01
      vertex   3.979836e+01 0.000000e+00 2.889488e+01
      vertex   3.979836e+01 1.000000e+01 2.889488e+01
    endloop
  endfacet
  facet normal 0.000000e+00 0.000000e+00 1.000000e+00
    outer loop
      vertex   1.259836e+01 0.000000e+00 -1.110512e+01
      vertex   3.979836e+01 0.000000e+00 -1.110512e+01
      vertex   1.259836e+01 1.000000e+01 -1.110512e+01
    endloop
  endfacet
  facet normal -0.000000e+00 0.000000e+00 1.000000e+00
    outer loop
      vertex   1.259836e+01 1.000000e+01 -1.110512e+01
      vertex   3.979836e+01 0.000000e+00 -1.110512e+01
      vertex   3.979836e+01 1.000000e+01 -1.110512e+01
    endloop
  endfacet
  facet normal 1.000000e+00 -0.000000e+00 0.000000e+00
    outer loop
      vertex   1.259836e+01 0.000000e+00 2.889488e+01
      vertex   1.259836e+01 0.000000e+00 -1.110512e+01
      vertex   1.259836e+01 1.000000e+01 2.889488e+01
    endloop
  endfacet
  facet normal 1.000000e+00 0.000000e+00 0.000000e+00
    outer loop
      vertex   1.259836e+01 1.000000e+01 2.889488e+01
      vertex   1.259836e+01 0.000000e+00 -1.110512e+01
      vertex   1.259836e+01 1.000000e+01 -1.110512e+01
    endloop
  endfacet
  facet normal 0.000000e+00 0.000000e+00 -1.000000e+00
    outer loop
      vertex   3.979836e+01 0.000000e+00 2.889488e+01
      vertex   1.259836e+01 0.000000e+00 2.889488e+01
      vertex   3.979836e+01 1.000000e+01 2.889488e+01
    endloop
  endfacet
  facet normal -0.000000e+00 0.000000e+00 -1.000000e+00
    outer loop
      vertex   3.979836e+01 1.000000e+01 2.889488e+01
      vertex   1.259836e+01 0.000000e+00 2.889488e+01
      vertex   1.259836e+01 1.000000e+01 2.889488e+01
    endloop
  endfacet
  facet normal -1.000000e+00 0.000000e+00 0.000000e+00
    outer loop
      vertex   -3.020164e+01 0.000000e+00 3.375493e+01
      vertex   -3.020164e+01 0.000000e+00 5.063239e+01
      vertex   -3.020164e+01 1.000000e+01 3.375493e+01
    endloop
  endfacet
  facet normal -1.000000e+00 0.000000e+00 0.000000e+00
    outer loop
      vertex   -3.020164e+01 1.000000e+01 3.375493e+01
      vertex   -3.020164e+01 0.000000e+00 5.063239e+01
      vertex   -3.020164e+01 1.000000e+01 5.063239e+01
    endloop
  endfacet
  facet normal 0.000000e+00 0.000000e+00 1.000000e+00
    outer loop
      vertex   -4.820164e+01 0.000000e+00 3.375493e+01
      vertex   -3.020164e+01 0.000000e+00 3.375493e+01
      vertex   -4.820164e+01 1.000000e+01 3.375493e+01
    endloop
  endfacet
  facet normal -0.000000e+00 0.000000e+00 1.000000e+00
    outer loop
      vertex   -4.820164e+01 1.000000e+01 3.375493e+01
      vertex   -3.020164e+01 0.000000e+00 3.375493e+01
      vertex   -3.020164e+01 1.000000e+01 3.375493e+01
    endloop
  endfacet
  facet normal -1.000000e+00 7.105427e-16 0.000000e+00
    outer loop
      vertex   -4.820164e+01 0.000000e+00 -1.610512e+01
      vertex   -4.820164e+01 0.000000e+00 3.375493e+01
      vertex   -4.820164e+01 1.000000e+01 -1.610512e+01
    endloop
  endfacet
  facet normal -1.000000e+00 7.105427e-16 0.000000e+00
    outer loop
      vertex   -4.820164e+01 1.000000e+01 -1.610512e+01
      vertex   -4.820164e+01 0.000000e+00 3.375493e+01
      vertex   -4.820164e+01 1.000000e+01 3.375493e+01
    endloop
  endfacet
  facet normal 0.000000e+00 0.000000e+00 -1.000000e+00
    outer loop
      vertex   4.779836e+01 0.000000e+00 -1.610512e+01
      vertex   -4.820164e+01 0.000000e+00 -1.610512e+01
      vertex   4.779836e+01 1.000000e+01 -1.610512e+01
    endloop
  endfacet
  facet normal -0.000000e+00 0.000000e+00 -1.000000e+00
    outer loop
      vertex   4.779836e+01 1.000000e+01 -1.610512e+01
      vertex   -4.820164e+01 0.000000e+00 -1.610512e+01
      vertex   -4.820164e+01 1.000000e+01 -1.610512e+01
    endloop
  endfacet
  facet normal 1.000000e+00 -0.000000e+00 0.000000e+00
    outer loop
      vertex   4.779836e+01 0.000000e+00 3.375493e+01
      vertex   4.779836e+01 0.000000e+00 -1.610512e+01
      vertex   4.779836e+01 1.000000e+01 3.375493e+01
    endloop
  endfacet
  facet normal 1.000000e+00 0.000000e+00 0.000000e+00
    outer loop
      vertex   4.779836e+01 1.000000e+01 3.375493e+01
      vertex   4.779836e+01 0.000000e+00 -1.610512e+01
      vertex   4.779836e+01 1.000000e+01 -1.610512e+01
    endloop
  endfacet
  facet normal 0.000000e+00 0.000000e+00 1.000000e+00
    outer loop
      vertex   2.979836e+01 0.000000e+00 3.375493e+01
      vertex   4.779836e+01 0.000000e+00 3.375493e+01
      vertex   2.979836e+01 1.000000e+01 3.375493e+01
    endloop
  endfacet
  facet normal -0.000000e+00 0.000000e+00 1.000000e+00
    outer loop
      vertex   2.979836e+01 1.000000e+01 3.375493e+01
      vertex   4.779836e+01 0.000000e+00 3.375493e+01
      vertex   4.779836e+01 1.000000e+01 3.375493e+01
    endloop
  endfacet
  facet normal 1.000000e+00 -0.000000e+00 0.000000e+00
    outer loop
      vertex   2.979836e+01 0.000000e+00 5.063239e+01
      vertex   2.979836e+01 0.000000e+00 3.375493e+01
      vertex   2.979836e+01 1.000000e+01 5.063239e+01
    endloop
  endfacet
  facet normal 1.000000e+00 0.000000e+00 0.000000e+00
    outer loop
      vertex   2.979836e+01 1.000000e+01 5.063239e+01
      vertex   2.979836e+01 0.000000e+00 3.375493e+01
      vertex   2.979836e+01 1.000000e+01 3.375493e+01
    endloop
  endfacet
  facet normal 0.000000e+00 0.000000e+00 1.000000e+00
    outer loop
      vertex   -3.020164e+01 0.000000e+00 5.063239e+01
      vertex   2.979836e+01 0.000000e+00 5.063239e+01
      vertex   -3.020164e+01 1.000000e+01 5.063239e+01
    endloop
  endfacet
  facet normal -0.000000e+00 0.000000e+00 1.000000e+00
    outer loop
      vertex   -3.020164e+01 1.000000e+01 5.063239e+01
      vertex   2.979836e+01 0.000000e+00 5.063239e+01
      vertex   2.979836e+01 1.000000e+01 5.063239e+01
    endloop
  endfacet
  facet normal 0.000000e+00 1.000000e+00 0.000000e+00
    outer loop
      vertex   1.259836e+01 1.000000e+01 2.889488e+01
      vertex   2.979836e+01 1.000000e+01 3.375493e+01
      vertex   3.979836e+01 1.000000e+01 2.889488e+01
    endloop
  endfacet
  facet normal 0.000000e+00 1.000000e+00 -0.000000e+00
    outer loop
      vertex   3.979836e+01 1.000000e+01 2.889488e+01
      vertex   2.979836e+01 1.000000e+01 3.375493e+01
      vertex   4.779836e+01 1.000000e+01 3.375493e+01
    endloop
  endfacet
  facet normal -0.000000e+00 1.000000e+00 0.000000e+00
    outer loop
      vertex   3.979836e+01 1.000000e+01 2.889488e+01
      vertex   4.779836e+01 1.000000e+01 3.375493e+01
      vertex   3.979836e+01 1.000000e+01 -1.110512e+01
    endloop
  endfacet
  facet normal -0.000000e+00 1.000000e+00 0.000000e+00
    outer loop
      vertex   3.979836e+01 1.000000e+01 -1.110512e+01
      vertex   4.779836e+01 1.000000e+01 3.375493e+01
      vertex   4.779836e+01 1.000000e+01 -1.610512e+01
    endloop
  endfacet
  facet normal 0.000000e+00 1.000000e+00 0.000000e+00
    outer loop
      vertex   3.979836e+01 1.000000e+01 -1.110512e+01
      vertex   4.779836e+01 1.000000e+01 -1.610512e+01
      vertex   1.259836e+01 1.000000e+01 -1.110512e+01
    endloop
  endfacet
  facet normal 0.000000e+00 1.000000e+00 0.000000e+00
    outer loop
      vertex   1.259836e+01 1.000000e+01 -1.110512e+01
      vertex   4.779836e+01 1.000000e+01 -1.610512e+01
      vertex   -4.820164e+01 1.000000e+01 -1.610512e+01
    endloop
  endfacet
  facet normal 0.000000e+00 1.000000e+00 0.000000e+00
    outer loop
      vertex   1.259836e+01 1.000000e+01 -1.110512e+01
      vertex   -4.820164e+01 1.000000e+01 -1.610512e+01
      vertex   -1.300164e+01 1.000000e+01 -1.110512e+01
    endloop
  endfacet
  facet normal 0.000000e+00 1.000000e+00 0.000000e+00
    outer loop
      vertex   -1.300164e+01 1.000000e+01 -1.110512e+01
      vertex   -4.820164e+01 1.000000e+01 -1.610512e+01
      vertex   -4.020164e+01 1.000000e+01 -1.110512e+01
    endloop
  endfacet
  facet normal 0.000000e+00 1.000000e+00 0.000000e+00
    outer loop
      vertex   -4.020164e+01 1.000000e+01 -1.110512e+01
      vertex   -4.820164e+01 1.000000e+01 -1.610512e+01
      vertex   -4.820164e+01 1.000000e+01 3.375493e+01
    endloop
  endfacet
  facet normal 0.000000e+00 1.000000e+00 -0.000000e+00
    outer loop
      vertex   -4.020164e+01 1.000000e+01 -1.110512e+01
      vertex   -4.820164e+01 1.000000e+01 3.375493e+01
      vertex   -4.020164e+01 1.000000e+01 2.889488e+01
    endloop
  endfacet
  facet normal 0.000000e+00 1.000000e+00 -0.000000e+00
    outer loop
      vertex   -4.020164e+01 1.000000e+01 2.889488e+01
      vertex   -4.820164e+01 1.000000e+01 3.375493e+01
      vertex   -3.020164e+01 1.000000e+01 3.375493e+01
    endloop
  endfacet
  facet normal 0.000000e+00 1.000000e+00 0.000000e+00
    outer loop
      vertex   -4.020164e+01 1.000000e+01 2.889488e+01
      vertex   -3.020164e+01 1.000000e+01 3.375493e+01
      vertex   -1.300164e+01 1.000000e+01 2.889488e+01
    endloop
  endfacet
  facet normal 0.000000e+00 1.000000e+00 0.000000e+00
    outer loop
      vertex   -1.300164e+01 1.000000e+01 2.889488e+01
      vertex   -3.020164e+01 1.000000e+01 3.375493e+01
      vertex   -3.020164e+01 1.000000e+01 5.063239e+01
    endloop
  endfacet
  facet normal 0.000000e+00 1.000000e+00 -0.000000e+00
    outer loop
      vertex   -1.300164e+01 1.000000e+01 2.889488e+01
      vertex   -3.020164e+01 1.000000e+01 5.063239e+01
      vertex   1.259836e+01 1.000000e+01 2.889488e+01
    endloop
  endfacet
  facet normal 0.000000e+00 1.000000e+00 -0.000000e+00
    outer loop
      vertex   1.259836e+01 1.000000e+01 2.889488e+01
      vertex   -3.020164e+01 1.000000e+01 5.063239e+01
      vertex   2.979836e+01 1.000000e+01 5.063239e+01
    endloop
  endfacet
  facet normal 0.000000e+00 1.000000e+00 0.000000e+00
    outer loop
      vertex   1.259836e+01 1.000000e+01 2.889488e+01
      vertex   2.979836e+01 1.000000e+01 5.063239e+01
      vertex   2.979836e+01 1.000000e+01 3.375493e+01
    endloop
  endfacet
  facet normal 0.000000e+00 1.000000e+00 0.000000e+00
    outer loop
      vertex   1.259836e+01 1.000000e+01 2.889488e+01
      vertex   1.259836e+01 1.000000e+01 -1.110512e+01
      vertex   -1.300164e+01 1.000000e+01 2.889488e+01
    endloop
  endfacet
  facet normal 0.000000e+00 1.000000e+00 0.000000e+00
    outer loop
      vertex   -1.300164e+01 1.000000e+01 2.889488e+01
      vertex   1.259836e+01 1.000000e+01 -1.110512e+01
      vertex   -1.300164e+01 1.000000e+01 -1.110512e+01
    endloop
  endfacet
  facet normal 0.000000e+00 -1.000000e+00 0.000000e+00
    outer loop
      vertex   3.979836e+01 0.000000e+00 2.889488e+01
      vertex   2.979836e+01 0.000000e+00 3.375493e+01
      vertex   1.259836e+01 0.000000e+00 2.889488e+01
    endloop
  endfacet
  facet normal 0.000000e+00 -1.000000e+00 0.000000e+00
    outer loop
      vertex   1.259836e+01 0.000000e+00 2.889488e+01
      vertex   2.979836e+01 0.000000e+00 3.375493e+01
      vertex   2.979836e+01 0.000000e+00 5.063239e+01
    endloop
  endfacet
  facet normal 0.000000e+00 -1.000000e+00 0.000000e+00
    outer loop
      vertex   1.259836e+01 0.000000e+00 2.889488e+01
      vertex   2.979836e+01 0.000000e+00 5.063239e+01
      vertex   -3.020164e+01 0.000000e+00 5.063239e+01
    endloop
  endfacet
  facet normal 0.000000e+00 -1.000000e+00 0.000000e+00
    outer loop
      vertex   2.979836e+01 0.000000e+00 3.375493e+01
      vertex   3.979836e+01 0.000000e+00 2.889488e+01
      vertex   4.779836e+01 0.000000e+00 3.375493e+01
    endloop
  endfacet
  facet normal 0.000000e+00 -1.000000e+00 0.000000e+00
    outer loop
      vertex   4.779836e+01 0.000000e+00 3.375493e+01
      vertex   3.979836e+01 0.000000e+00 2.889488e+01
      vertex   3.979836e+01 0.000000e+00 -1.110512e+01
    endloop
  endfacet
  facet normal 0.000000e+00 -1.000000e+00 -0.000000e+00
    outer loop
      vertex   4.779836e+01 0.000000e+00 3.375493e+01
      vertex   3.979836e+01 0.000000e+00 -1.110512e+01
      vertex   4.779836e+01 0.000000e+00 -1.610512e+01
    endloop
  endfacet
  facet normal 0.000000e+00 -1.000000e+00 0.000000e+00
    outer loop
      vertex   4.779836e+01 0.000000e+00 -1.610512e+01
      vertex   3.979836e+01 0.000000e+00 -1.110512e+01
      vertex   1.259836e+01 0.000000e+00 -1.110512e+01
    endloop
  endfacet
  facet normal 0.000000e+00 -1.000000e+00 0.000000e+00
    outer loop
      vertex   4.779836e+01 0.000000e+00 -1.610512e+01
      vertex   1.259836e+01 0.000000e+00 -1.110512e+01
      vertex   -1.300164e+01 0.000000e+00 -1.110512e+01
    endloop
  endfacet
  facet normal 0.000000e+00 -1.000000e+00 0.000000e+00
    outer loop
      vertex   -1.300164e+01 0.000000e+00 -1.110512e+01
      vertex   1.259836e+01 0.000000e+00 -1.110512e+01
      vertex   -1.300164e+01 0.000000e+00 2.889488e+01
    endloop
  endfacet
  facet normal 0.000000e+00 -1.000000e+00 0.000000e+00
    outer loop
      vertex   -1.300164e+01 0.000000e+00 2.889488e+01
      vertex   1.259836e+01 0.000000e+00 -1.110512e+01
      vertex   1.259836e+01 0.000000e+00 2.889488e+01
    endloop
  endfacet
  facet normal 0.000000e+00 -1.000000e+00 0.000000e+00
    outer loop
      vertex   -1.300164e+01 0.000000e+00 2.889488e+01
      vertex   1.259836e+01 0.000000e+00 2.889488e+01
      vertex   -3.020164e+01 0.000000e+00 5.063239e+01
    endloop
  endfacet
  facet normal 0.000000e+00 -1.000000e+00 0.000000e+00
    outer loop
      vertex   -1.300164e+01 0.000000e+00 2.889488e+01
      vertex   -3.020164e+01 0.000000e+00 3.375493e+01
      vertex   -4.020164e+01 0.000000e+00 2.889488e+01
    endloop
  endfacet
  facet normal 0.000000e+00 -1.000000e+00 0.000000e+00
    outer loop
      vertex   -4.020164e+01 0.000000e+00 2.889488e+01
      vertex   -3.020164e+01 0.000000e+00 3.375493e+01
      vertex   -4.820164e+01 0.000000e+00 3.375493e+01
    endloop
  endfacet
  facet normal -0.000000e+00 -1.000000e+00 -0.000000e+00
    outer loop
      vertex   -4.020164e+01 0.000000e+00 2.889488e+01
      vertex   -4.820164e+01 0.000000e+00 3.375493e+01
      vertex   -4.020164e+01 0.000000e+00 -1.110512e+01
    endloop
  endfacet
  facet normal -0.000000e+00 -1.000000e+00 0.000000e+00
    outer loop
      vertex   -4.020164e+01 0.000000e+00 -1.110512e+01
      vertex   -4.820164e+01 0.000000e+00 3.375493e+01
      vertex   -4.820164e+01 0.000000e+00 -1.610512e+01
    endloop
  endfacet
  facet normal 0.000000e+00 -1.000000e+00 -0.000000e+00
    outer loop
      vertex   -4.020164e+01 0.000000e+00 -1.110512e+01
      vertex   -4.820164e+01 0.000000e+00 -1.610512e+01
      vertex   -1.300164e+01 0.000000e+00 -1.110512e+01
    endloop
  endfacet
  facet normal 0.000000e+00 -1.000000e+00 -0.000000e+00
    outer loop
      vertex   -1.300164e+01 0.000000e+00 -1.110512e+01
      vertex   -4.820164e+01 0.000000e+00 -1.610512e+01
      vertex   4.779836e+01 0.000000e+00 -1.610512e+01
    endloop
  endfacet
  facet normal 0.000000e+00 -1.000000e+00 0.000000e+00
    outer loop
      vertex   -3.020164e+01 0.000000e+00 5.063239e+01
      vertex   -3.020164e+01 0.000000e+00 3.375493e+01
      vertex   -1.300164e+01 0.000000e+00 2.889488e+01
    endloop
  endfacet
endsolid
